<svg width="31" height="30" viewBox="0 0 31 30" fill="none" xmlns="http://www.w3.org/2000/svg">
<path d="M7.17387 9.375H0.465118V30H7.17387V9.375Z" fill="#1976D2"/>
<path d="M25.4476 9.61688C25.3764 9.59438 25.3089 9.57 25.2339 9.54937C25.1439 9.52875 25.0539 9.51188 24.962 9.49687C24.6057 9.42562 24.2157 9.375 23.7582 9.375C19.847 9.375 17.3664 12.2194 16.5489 13.3181V9.375H9.84012V30H16.5489V18.75C16.5489 18.75 21.6189 11.6887 23.7582 16.875C23.7582 21.5044 23.7582 30 23.7582 30H30.4651V16.0819C30.4651 12.9656 28.3295 10.3688 25.4476 9.61688Z" fill="#1976D2"/>
<path d="M3.74637 6.5625C5.55855 6.5625 7.02762 5.09343 7.02762 3.28125C7.02762 1.46907 5.55855 0 3.74637 0C1.93418 0 0.465118 1.46907 0.465118 3.28125C0.465118 5.09343 1.93418 6.5625 3.74637 6.5625Z" fill="#1976D2"/>
</svg>
