<svg width="24" height="21" viewBox="0 0 24 21" fill="none" xmlns="http://www.w3.org/2000/svg">
<path d="M22.0143 7.10494H15.0923L13.9305 13.9581H9.13662L3.476 20.7529C3.65534 20.9101 3.88397 20.9976 4.12113 20.9999H19.1453C19.3221 21.0025 19.494 20.9407 19.6296 20.8256C19.7651 20.7105 19.8552 20.5499 19.8835 20.373L22.0143 7.10494Z" fill="#0747A6"/>
<path d="M0.747311 0.0698198C0.639844 0.0684805 0.533384 0.090925 0.43537 0.135585C0.337356 0.180244 0.250151 0.246042 0.179848 0.328381C0.109545 0.41072 0.0578398 0.507616 0.0283446 0.612296C-0.00115063 0.716976 -0.00772444 0.826917 0.0090826 0.934437L3.14163 20.1513C3.18055 20.3867 3.30028 20.6007 3.47971 20.7554C3.65914 20.9102 3.88676 20.9959 4.12244 20.9973L9.93516 13.9581H9.11957L7.8398 7.10496H22.0156L23.0122 0.942406C23.0308 0.835085 23.0259 0.724928 22.9979 0.619726C22.9698 0.514523 22.9193 0.416846 22.8499 0.333604C22.7805 0.250362 22.6938 0.183587 22.5961 0.138005C22.4984 0.0924221 22.392 0.0691452 22.2844 0.0698198H0.747311Z" fill="#0747A6"/>
</svg>
