<svg width="22" height="21" viewBox="0 0 22 21" fill="none" xmlns="http://www.w3.org/2000/svg">
<path d="M10.8592 0.0697632C5.08111 0.0697632 0.395355 4.77384 0.395355 10.5767C0.395355 15.218 3.39361 19.1555 7.55349 20.5461C8.07675 20.6429 8.26774 20.3185 8.26774 20.0398C8.26774 19.79 8.25858 19.1294 8.25335 18.2529C5.34274 18.8874 4.72791 16.844 4.72791 16.844C4.25306 15.6301 3.56629 15.307 3.56629 15.307C2.61527 14.6555 3.63692 14.6686 3.63692 14.6686C4.68736 14.7432 5.2394 15.7517 5.2394 15.7517C6.17341 17.3568 7.68954 16.8938 8.28605 16.6243C8.38024 15.9454 8.65102 15.4823 8.95059 15.2193C6.62733 14.9538 4.18373 14.0525 4.18373 10.0273C4.18373 8.88009 4.59187 7.94215 5.26163 7.20698C5.15306 6.94142 4.79463 5.87267 5.36367 4.42718C5.36367 4.42718 6.24274 4.14462 8.24158 5.50378C9.07617 5.27093 9.97094 5.1545 10.8618 5.15058C11.75 5.15581 12.6461 5.27093 13.482 5.50509C15.4795 4.14593 16.3573 4.42849 16.3573 4.42849C16.9276 5.87529 16.5692 6.94273 16.4619 7.20828C17.133 7.94346 17.5372 8.8814 17.5372 10.0286C17.5372 14.0642 15.091 14.9525 12.7599 15.2128C13.1353 15.5372 13.4702 16.1782 13.4702 17.158C13.4702 18.5629 13.4571 19.6958 13.4571 20.0398C13.4571 20.3211 13.6455 20.6481 14.1766 20.5448C18.3299 19.1529 21.3256 15.2167 21.3256 10.5767C21.3256 4.77384 16.6398 0.0697632 10.8592 0.0697632Z" fill="#5C6BC0"/>
</svg>
