<svg width="37" height="21" viewBox="0 0 37 21" fill="none" xmlns="http://www.w3.org/2000/svg">
<path d="M18.3635 20.9118H20.4896C20.4896 20.9118 21.1323 20.8385 21.4593 20.4739C21.7617 20.1391 21.7506 19.5109 21.7506 19.5109C21.7506 19.5109 21.7084 16.5692 23.0339 16.1358C24.3394 15.7094 26.0163 18.979 27.7932 20.2377C29.1365 21.1893 30.1573 20.9806 30.1573 20.9806L34.91 20.9118C34.91 20.9118 37.3965 20.7536 36.2177 18.7382C36.1221 18.5731 35.5305 17.2479 32.6838 14.524C29.7036 11.6717 30.104 12.1349 33.6935 7.20297C35.8797 4.19935 36.7537 2.36508 36.4802 1.58094C36.22 0.833471 34.612 1.03066 34.612 1.03066L29.2655 1.06275C29.2655 1.06275 28.8696 1.00773 28.5739 1.18886C28.287 1.3677 28.1024 1.78041 28.1024 1.78041C28.1024 1.78041 27.255 4.10535 26.1252 6.08177C23.7433 10.2524 22.7892 10.4725 22.4 10.2135C21.4949 9.61044 21.7217 7.78764 21.7217 6.49448C21.7217 2.45221 22.3155 0.766979 20.563 0.33134C19.9803 0.186892 19.5533 0.0905929 18.0654 0.0745431C16.1573 0.0539076 14.5404 0.0814216 13.6263 0.542281C13.017 0.849521 12.5477 1.53508 12.8346 1.57406C13.1882 1.62221 13.9889 1.79646 14.4136 2.3926C14.963 3.1607 14.943 4.88949 14.943 4.88949C14.943 4.88949 15.2588 9.64713 14.2068 10.2387C13.484 10.6445 12.4943 9.8168 10.3704 6.03133C9.28287 4.09388 8.45999 1.95008 8.45999 1.95008C8.45999 1.95008 8.30208 1.55113 8.01964 1.3379C7.67714 1.0788 7.19676 0.996263 7.19676 0.996263L2.11269 1.02836C2.11269 1.02836 1.34986 1.05129 1.06964 1.39292C0.820548 1.69787 1.04962 2.32611 1.04962 2.32611C1.04962 2.32611 5.03058 11.9262 9.53641 16.7664C13.6708 21.203 18.3635 20.9118 18.3635 20.9118Z" fill="#1E88E5"/>
</svg>
